<?xml version="1.0" encoding="utf-8" standalone="no"?>
<!DOCTYPE svg PUBLIC "-//W3C//DTD SVG 1.1//EN"
  "http://www.w3.org/Graphics/SVG/1.1/DTD/svg11.dtd">
<svg xmlns:xlink="http://www.w3.org/1999/xlink" width="706.92pt" height="264.12pt" viewBox="0 0 706.92 264.12" xmlns="http://www.w3.org/2000/svg" version="1.1">
 <metadata>
  <rdf:RDF xmlns:dc="http://purl.org/dc/elements/1.1/" xmlns:cc="http://creativecommons.org/ns#" xmlns:rdf="http://www.w3.org/1999/02/22-rdf-syntax-ns#">
   <cc:Work>
    <dc:type rdf:resource="http://purl.org/dc/dcmitype/StillImage"/>
    <dc:date>2026-05-01T19:07:09.228310</dc:date>
    <dc:format>image/svg+xml</dc:format>
    <dc:creator>
     <cc:Agent>
      <dc:title>Matplotlib v3.8.0, https://matplotlib.org/</dc:title>
     </cc:Agent>
    </dc:creator>
   </cc:Work>
  </rdf:RDF>
 </metadata>
 <defs>
  <style type="text/css">*{stroke-linejoin: round; stroke-linecap: butt}</style>
 </defs>
 <g id="figure_1">
  <g id="patch_1">
   <path d="M 0 264.12 
L 706.92 264.12 
L 706.92 0 
L 0 0 
z
" style="fill: #ffffff"/>
  </g>
  <g id="axes_1">
   <g id="patch_2">
    <path d="M 16.572308 70.135068 
L 111.693538 70.135068 
Q 114.215692 70.135068 114.215692 67.643836 
L 114.215692 19.24274 
Q 114.215692 16.751507 111.693538 16.751507 
L 16.572308 16.751507 
Q 14.050154 16.751507 14.050154 19.24274 
L 14.050154 67.643836 
Q 14.050154 70.135068 16.572308 70.135068 
z
" clip-path="url(#p7419e51dc6)" style="fill: #eef3fb; stroke: #2f5597; stroke-width: 1.25; stroke-linejoin: miter"/>
   </g>
   <g id="patch_3">
    <path d="M 123.223385 70.135068 
L 218.344615 70.135068 
Q 220.866769 70.135068 220.866769 67.643836 
L 220.866769 19.24274 
Q 220.866769 16.751507 218.344615 16.751507 
L 123.223385 16.751507 
Q 120.701231 16.751507 120.701231 19.24274 
L 120.701231 67.643836 
Q 120.701231 70.135068 123.223385 70.135068 
z
" clip-path="url(#p7419e51dc6)" style="fill: #eef3fb; stroke: #2f5597; stroke-width: 1.25; stroke-linejoin: miter"/>
   </g>
   <g id="patch_4">
    <path d="M 69.897846 137.754247 
L 165.019077 137.754247 
Q 167.541231 137.754247 167.541231 135.263014 
L 167.541231 86.861918 
Q 167.541231 84.370685 165.019077 84.370685 
L 69.897846 84.370685 
Q 67.375692 84.370685 67.375692 86.861918 
L 67.375692 135.263014 
Q 67.375692 137.754247 69.897846 137.754247 
z
" clip-path="url(#p7419e51dc6)" style="fill: #eef8f1; stroke: #2f7d45; stroke-width: 1.25; stroke-linejoin: miter"/>
   </g>
   <g id="patch_5">
    <path d="M 185.916923 137.754247 
L 302.656615 137.754247 
Q 305.178769 137.754247 305.178769 135.263014 
L 305.178769 86.861918 
Q 305.178769 84.370685 302.656615 84.370685 
L 185.916923 84.370685 
Q 183.394769 84.370685 183.394769 86.861918 
L 183.394769 135.263014 
Q 183.394769 137.754247 185.916923 137.754247 
z
" clip-path="url(#p7419e51dc6)" style="fill: #eef8f1; stroke: #2f7d45; stroke-width: 1.25; stroke-linejoin: miter"/>
   </g>
   <g id="patch_6">
    <path d="M 326.436923 137.754247 
L 430.926154 137.754247 
Q 433.448308 137.754247 433.448308 135.263014 
L 433.448308 86.861918 
Q 433.448308 84.370685 430.926154 84.370685 
L 326.436923 84.370685 
Q 323.914769 84.370685 323.914769 86.861918 
L 323.914769 135.263014 
Q 323.914769 137.754247 326.436923 137.754247 
z
" clip-path="url(#p7419e51dc6)" style="fill: #eef8f1; stroke: #2f7d45; stroke-width: 1.25; stroke-linejoin: miter"/>
   </g>
   <g id="patch_7">
    <path d="M 454.706462 137.754247 
L 557.033846 137.754247 
Q 559.556 137.754247 559.556 135.263014 
L 559.556 86.861918 
Q 559.556 84.370685 557.033846 84.370685 
L 454.706462 84.370685 
Q 452.184308 84.370685 452.184308 86.861918 
L 452.184308 135.263014 
Q 452.184308 137.754247 454.706462 137.754247 
z
" clip-path="url(#p7419e51dc6)" style="fill: #fff3e8; stroke: #c55a11; stroke-width: 1.25; stroke-linejoin: miter"/>
   </g>
   <g id="patch_8">
    <path d="M 580.814154 137.754247 
L 688.906462 137.754247 
Q 691.428615 137.754247 691.428615 135.263014 
L 691.428615 86.861918 
Q 691.428615 84.370685 688.906462 84.370685 
L 580.814154 84.370685 
Q 578.292 84.370685 578.292 86.861918 
L 578.292 135.263014 
Q 578.292 137.754247 580.814154 137.754247 
z
" clip-path="url(#p7419e51dc6)" style="fill: #fff3e8; stroke: #c55a11; stroke-width: 1.25; stroke-linejoin: miter"/>
   </g>
   <g id="patch_9">
    <path d="M 570.725538 227.43863 
L 698.995077 227.43863 
Q 701.517231 227.43863 701.517231 224.947397 
L 701.517231 176.546301 
Q 701.517231 174.055068 698.995077 174.055068 
L 570.725538 174.055068 
Q 568.203385 174.055068 568.203385 176.546301 
L 568.203385 224.947397 
Q 568.203385 227.43863 570.725538 227.43863 
z
" clip-path="url(#p7419e51dc6)" style="fill: #f5f6f8; stroke: #6b7280; stroke-width: 1.25; stroke-linejoin: miter"/>
   </g>
   <g id="patch_10">
    <path d="M 171.144308 157.328219 
L 447.860615 157.328219 
Q 451.103385 157.328219 451.103385 154.125205 
L 451.103385 72.270411 
Q 451.103385 69.067397 447.860615 69.067397 
L 171.144308 69.067397 
Q 167.901538 69.067397 167.901538 72.270411 
L 167.901538 154.125205 
Q 167.901538 157.328219 171.144308 157.328219 
L 171.144308 157.328219 
z
" clip-path="url(#p7419e51dc6)" style="fill: none; stroke: #b7bcc5; stroke-width: 0.9; stroke-linejoin: miter"/>
   </g>
   <g id="patch_11">
    <path d="M 65.896636 68.584564 
Q 82.149645 77.25359 97.218876 85.291212 
" clip-path="url(#p7419e51dc6)" style="fill: none; stroke: #555555; stroke-width: 1.2; stroke-linecap: round"/>
    <path d="M 93.854341 80.549914 
L 97.218876 85.291212 
L 91.407116 85.138061 
z
" clip-path="url(#p7419e51dc6)" style="fill: #555555; stroke: #555555; stroke-width: 1.2; stroke-linecap: round"/>
   </g>
   <g id="patch_12">
    <path d="M 168.948771 68.43325 
Q 148.446454 77.252218 129.176597 85.54105 
" clip-path="url(#p7419e51dc6)" style="fill: none; stroke: #555555; stroke-width: 1.2; stroke-linecap: round"/>
    <path d="M 134.98079 85.874735 
L 129.176597 85.54105 
L 132.926062 81.097907 
z
" clip-path="url(#p7419e51dc6)" style="fill: #555555; stroke: #555555; stroke-width: 1.2; stroke-linecap: round"/>
   </g>
   <g id="patch_13">
    <path d="M 167.021617 111.062466 
Q 175.470531 111.062466 182.577805 111.062466 
" clip-path="url(#p7419e51dc6)" style="fill: none; stroke: #555555; stroke-width: 1.2; stroke-linecap: round"/>
    <path d="M 177.377805 108.462466 
L 182.577805 111.062466 
L 177.377805 113.662466 
z
" clip-path="url(#p7419e51dc6)" style="fill: #555555; stroke: #555555; stroke-width: 1.2; stroke-linecap: round"/>
   </g>
   <g id="patch_14">
    <path d="M 304.656693 111.062466 
Q 314.5458 111.062466 323.093266 111.062466 
" clip-path="url(#p7419e51dc6)" style="fill: none; stroke: #555555; stroke-width: 1.2; stroke-linecap: round"/>
    <path d="M 317.893266 108.462466 
L 323.093266 111.062466 
L 317.893266 113.662466 
z
" clip-path="url(#p7419e51dc6)" style="fill: #555555; stroke: #555555; stroke-width: 1.2; stroke-linecap: round"/>
   </g>
   <g id="patch_15">
    <path d="M 432.926231 111.062466 
Q 442.815338 111.062466 451.362805 111.062466 
" clip-path="url(#p7419e51dc6)" style="fill: none; stroke: #555555; stroke-width: 1.2; stroke-linecap: round"/>
    <path d="M 446.162805 108.462466 
L 451.362805 111.062466 
L 446.162805 113.662466 
z
" clip-path="url(#p7419e51dc6)" style="fill: #555555; stroke: #555555; stroke-width: 1.2; stroke-linecap: round"/>
   </g>
   <g id="patch_16">
    <path d="M 559.033923 111.062466 
Q 568.923031 111.062466 577.470497 111.062466 
" clip-path="url(#p7419e51dc6)" style="fill: none; stroke: #555555; stroke-width: 1.2; stroke-linecap: round"/>
    <path d="M 572.270497 108.462466 
L 577.470497 111.062466 
L 572.270497 113.662466 
z
" clip-path="url(#p7419e51dc6)" style="fill: #555555; stroke: #555555; stroke-width: 1.2; stroke-linecap: round"/>
   </g>
   <g id="patch_17">
    <path d="M 634.860308 137.261161 
Q 634.860308 155.903859 634.860308 173.204917 
" clip-path="url(#p7419e51dc6)" style="fill: none; stroke: #555555; stroke-width: 1.2; stroke-linecap: round"/>
    <path d="M 637.460308 168.004917 
L 634.860308 173.204917 
L 632.260308 168.004917 
z
" clip-path="url(#p7419e51dc6)" style="fill: #555555; stroke: #555555; stroke-width: 1.2; stroke-linecap: round"/>
   </g>
   <g id="text_1">
    <!-- 3D scene -->
    <g style="fill: #111111" transform="translate(38.50722 40.654135) scale(0.11 -0.11)">
     <defs>
      <path id="DejaVuSans-33" d="M 2597 2516 
Q 3050 2419 3304 2112 
Q 3559 1806 3559 1356 
Q 3559 666 3084 287 
Q 2609 -91 1734 -91 
Q 1441 -91 1130 -33 
Q 819 25 488 141 
L 488 750 
Q 750 597 1062 519 
Q 1375 441 1716 441 
Q 2309 441 2620 675 
Q 2931 909 2931 1356 
Q 2931 1769 2642 2001 
Q 2353 2234 1838 2234 
L 1294 2234 
L 1294 2753 
L 1863 2753 
Q 2328 2753 2575 2939 
Q 2822 3125 2822 3475 
Q 2822 3834 2567 4026 
Q 2313 4219 1838 4219 
Q 1578 4219 1281 4162 
Q 984 4106 628 3988 
L 628 4550 
Q 988 4650 1302 4700 
Q 1616 4750 1894 4750 
Q 2613 4750 3031 4423 
Q 3450 4097 3450 3541 
Q 3450 3153 3228 2886 
Q 3006 2619 2597 2516 
z
" transform="scale(0.015625)"/>
      <path id="DejaVuSans-44" d="M 1259 4147 
L 1259 519 
L 2022 519 
Q 2988 519 3436 956 
Q 3884 1394 3884 2338 
Q 3884 3275 3436 3711 
Q 2988 4147 2022 4147 
L 1259 4147 
z
M 628 4666 
L 1925 4666 
Q 3281 4666 3915 4102 
Q 4550 3538 4550 2338 
Q 4550 1131 3912 565 
Q 3275 0 1925 0 
L 628 0 
L 628 4666 
z
" transform="scale(0.015625)"/>
      <path id="DejaVuSans-20" transform="scale(0.015625)"/>
      <path id="DejaVuSans-73" d="M 2834 3397 
L 2834 2853 
Q 2591 2978 2328 3040 
Q 2066 3103 1784 3103 
Q 1356 3103 1142 2972 
Q 928 2841 928 2578 
Q 928 2378 1081 2264 
Q 1234 2150 1697 2047 
L 1894 2003 
Q 2506 1872 2764 1633 
Q 3022 1394 3022 966 
Q 3022 478 2636 193 
Q 2250 -91 1575 -91 
Q 1294 -91 989 -36 
Q 684 19 347 128 
L 347 722 
Q 666 556 975 473 
Q 1284 391 1588 391 
Q 1994 391 2212 530 
Q 2431 669 2431 922 
Q 2431 1156 2273 1281 
Q 2116 1406 1581 1522 
L 1381 1569 
Q 847 1681 609 1914 
Q 372 2147 372 2553 
Q 372 3047 722 3315 
Q 1072 3584 1716 3584 
Q 2034 3584 2315 3537 
Q 2597 3491 2834 3397 
z
" transform="scale(0.015625)"/>
      <path id="DejaVuSans-63" d="M 3122 3366 
L 3122 2828 
Q 2878 2963 2633 3030 
Q 2388 3097 2138 3097 
Q 1578 3097 1268 2742 
Q 959 2388 959 1747 
Q 959 1106 1268 751 
Q 1578 397 2138 397 
Q 2388 397 2633 464 
Q 2878 531 3122 666 
L 3122 134 
Q 2881 22 2623 -34 
Q 2366 -91 2075 -91 
Q 1284 -91 818 406 
Q 353 903 353 1747 
Q 353 2603 823 3093 
Q 1294 3584 2113 3584 
Q 2378 3584 2631 3529 
Q 2884 3475 3122 3366 
z
" transform="scale(0.015625)"/>
      <path id="DejaVuSans-65" d="M 3597 1894 
L 3597 1613 
L 953 1613 
Q 991 1019 1311 708 
Q 1631 397 2203 397 
Q 2534 397 2845 478 
Q 3156 559 3463 722 
L 3463 178 
Q 3153 47 2828 -22 
Q 2503 -91 2169 -91 
Q 1331 -91 842 396 
Q 353 884 353 1716 
Q 353 2575 817 3079 
Q 1281 3584 2069 3584 
Q 2775 3584 3186 3129 
Q 3597 2675 3597 1894 
z
M 3022 2063 
Q 3016 2534 2758 2815 
Q 2500 3097 2075 3097 
Q 1594 3097 1305 2825 
Q 1016 2553 972 2059 
L 3022 2063 
z
" transform="scale(0.015625)"/>
      <path id="DejaVuSans-6e" d="M 3513 2113 
L 3513 0 
L 2938 0 
L 2938 2094 
Q 2938 2591 2744 2837 
Q 2550 3084 2163 3084 
Q 1697 3084 1428 2787 
Q 1159 2491 1159 1978 
L 1159 0 
L 581 0 
L 581 3500 
L 1159 3500 
L 1159 2956 
Q 1366 3272 1645 3428 
Q 1925 3584 2291 3584 
Q 2894 3584 3203 3211 
Q 3513 2838 3513 2113 
z
" transform="scale(0.015625)"/>
     </defs>
     <use xlink:href="#DejaVuSans-33"/>
     <use xlink:href="#DejaVuSans-44" x="63.623047"/>
     <use xlink:href="#DejaVuSans-20" x="140.625"/>
     <use xlink:href="#DejaVuSans-73" x="172.412109"/>
     <use xlink:href="#DejaVuSans-63" x="224.511719"/>
     <use xlink:href="#DejaVuSans-65" x="279.492188"/>
     <use xlink:href="#DejaVuSans-6e" x="341.015625"/>
     <use xlink:href="#DejaVuSans-65" x="404.394531"/>
    </g>
    <!-- objects -->
    <g style="fill: #111111" transform="translate(44.318314 52.303066) scale(0.11 -0.11)">
     <defs>
      <path id="DejaVuSans-6f" d="M 1959 3097 
Q 1497 3097 1228 2736 
Q 959 2375 959 1747 
Q 959 1119 1226 758 
Q 1494 397 1959 397 
Q 2419 397 2687 759 
Q 2956 1122 2956 1747 
Q 2956 2369 2687 2733 
Q 2419 3097 1959 3097 
z
M 1959 3584 
Q 2709 3584 3137 3096 
Q 3566 2609 3566 1747 
Q 3566 888 3137 398 
Q 2709 -91 1959 -91 
Q 1206 -91 779 398 
Q 353 888 353 1747 
Q 353 2609 779 3096 
Q 1206 3584 1959 3584 
z
" transform="scale(0.015625)"/>
      <path id="DejaVuSans-62" d="M 3116 1747 
Q 3116 2381 2855 2742 
Q 2594 3103 2138 3103 
Q 1681 3103 1420 2742 
Q 1159 2381 1159 1747 
Q 1159 1113 1420 752 
Q 1681 391 2138 391 
Q 2594 391 2855 752 
Q 3116 1113 3116 1747 
z
M 1159 2969 
Q 1341 3281 1617 3432 
Q 1894 3584 2278 3584 
Q 2916 3584 3314 3078 
Q 3713 2572 3713 1747 
Q 3713 922 3314 415 
Q 2916 -91 2278 -91 
Q 1894 -91 1617 61 
Q 1341 213 1159 525 
L 1159 0 
L 581 0 
L 581 4863 
L 1159 4863 
L 1159 2969 
z
" transform="scale(0.015625)"/>
      <path id="DejaVuSans-6a" d="M 603 3500 
L 1178 3500 
L 1178 -63 
Q 1178 -731 923 -1031 
Q 669 -1331 103 -1331 
L -116 -1331 
L -116 -844 
L 38 -844 
Q 366 -844 484 -692 
Q 603 -541 603 -63 
L 603 3500 
z
M 603 4863 
L 1178 4863 
L 1178 4134 
L 603 4134 
L 603 4863 
z
" transform="scale(0.015625)"/>
      <path id="DejaVuSans-74" d="M 1172 4494 
L 1172 3500 
L 2356 3500 
L 2356 3053 
L 1172 3053 
L 1172 1153 
Q 1172 725 1289 603 
Q 1406 481 1766 481 
L 2356 481 
L 2356 0 
L 1766 0 
Q 1100 0 847 248 
Q 594 497 594 1153 
L 594 3053 
L 172 3053 
L 172 3500 
L 594 3500 
L 594 4494 
L 1172 4494 
z
" transform="scale(0.015625)"/>
     </defs>
     <use xlink:href="#DejaVuSans-6f"/>
     <use xlink:href="#DejaVuSans-62" x="61.181641"/>
     <use xlink:href="#DejaVuSans-6a" x="124.658203"/>
     <use xlink:href="#DejaVuSans-65" x="152.441406"/>
     <use xlink:href="#DejaVuSans-63" x="213.964844"/>
     <use xlink:href="#DejaVuSans-74" x="268.945312"/>
     <use xlink:href="#DejaVuSans-73" x="308.154297"/>
    </g>
   </g>
   <g id="text_2">
    <!-- Language -->
    <g style="fill: #111111" transform="translate(143.639781 40.654135) scale(0.11 -0.11)">
     <defs>
      <path id="DejaVuSans-4c" d="M 628 4666 
L 1259 4666 
L 1259 531 
L 3531 531 
L 3531 0 
L 628 0 
L 628 4666 
z
" transform="scale(0.015625)"/>
      <path id="DejaVuSans-61" d="M 2194 1759 
Q 1497 1759 1228 1600 
Q 959 1441 959 1056 
Q 959 750 1161 570 
Q 1363 391 1709 391 
Q 2188 391 2477 730 
Q 2766 1069 2766 1631 
L 2766 1759 
L 2194 1759 
z
M 3341 1997 
L 3341 0 
L 2766 0 
L 2766 531 
Q 2569 213 2275 61 
Q 1981 -91 1556 -91 
Q 1019 -91 701 211 
Q 384 513 384 1019 
Q 384 1609 779 1909 
Q 1175 2209 1959 2209 
L 2766 2209 
L 2766 2266 
Q 2766 2663 2505 2880 
Q 2244 3097 1772 3097 
Q 1472 3097 1187 3025 
Q 903 2953 641 2809 
L 641 3341 
Q 956 3463 1253 3523 
Q 1550 3584 1831 3584 
Q 2591 3584 2966 3190 
Q 3341 2797 3341 1997 
z
" transform="scale(0.015625)"/>
      <path id="DejaVuSans-67" d="M 2906 1791 
Q 2906 2416 2648 2759 
Q 2391 3103 1925 3103 
Q 1463 3103 1205 2759 
Q 947 2416 947 1791 
Q 947 1169 1205 825 
Q 1463 481 1925 481 
Q 2391 481 2648 825 
Q 2906 1169 2906 1791 
z
M 3481 434 
Q 3481 -459 3084 -895 
Q 2688 -1331 1869 -1331 
Q 1566 -1331 1297 -1286 
Q 1028 -1241 775 -1147 
L 775 -588 
Q 1028 -725 1275 -790 
Q 1522 -856 1778 -856 
Q 2344 -856 2625 -561 
Q 2906 -266 2906 331 
L 2906 616 
Q 2728 306 2450 153 
Q 2172 0 1784 0 
Q 1141 0 747 490 
Q 353 981 353 1791 
Q 353 2603 747 3093 
Q 1141 3584 1784 3584 
Q 2172 3584 2450 3431 
Q 2728 3278 2906 2969 
L 2906 3500 
L 3481 3500 
L 3481 434 
z
" transform="scale(0.015625)"/>
      <path id="DejaVuSans-75" d="M 544 1381 
L 544 3500 
L 1119 3500 
L 1119 1403 
Q 1119 906 1312 657 
Q 1506 409 1894 409 
Q 2359 409 2629 706 
Q 2900 1003 2900 1516 
L 2900 3500 
L 3475 3500 
L 3475 0 
L 2900 0 
L 2900 538 
Q 2691 219 2414 64 
Q 2138 -91 1772 -91 
Q 1169 -91 856 284 
Q 544 659 544 1381 
z
M 1991 3584 
L 1991 3584 
z
" transform="scale(0.015625)"/>
     </defs>
     <use xlink:href="#DejaVuSans-4c"/>
     <use xlink:href="#DejaVuSans-61" x="55.712891"/>
     <use xlink:href="#DejaVuSans-6e" x="116.992188"/>
     <use xlink:href="#DejaVuSans-67" x="180.371094"/>
     <use xlink:href="#DejaVuSans-75" x="243.847656"/>
     <use xlink:href="#DejaVuSans-61" x="307.226562"/>
     <use xlink:href="#DejaVuSans-67" x="368.505859"/>
     <use xlink:href="#DejaVuSans-65" x="431.982422"/>
    </g>
    <!-- expression -->
    <g style="fill: #111111" transform="translate(141.118375 52.303066) scale(0.11 -0.11)">
     <defs>
      <path id="DejaVuSans-78" d="M 3513 3500 
L 2247 1797 
L 3578 0 
L 2900 0 
L 1881 1375 
L 863 0 
L 184 0 
L 1544 1831 
L 300 3500 
L 978 3500 
L 1906 2253 
L 2834 3500 
L 3513 3500 
z
" transform="scale(0.015625)"/>
      <path id="DejaVuSans-70" d="M 1159 525 
L 1159 -1331 
L 581 -1331 
L 581 3500 
L 1159 3500 
L 1159 2969 
Q 1341 3281 1617 3432 
Q 1894 3584 2278 3584 
Q 2916 3584 3314 3078 
Q 3713 2572 3713 1747 
Q 3713 922 3314 415 
Q 2916 -91 2278 -91 
Q 1894 -91 1617 61 
Q 1341 213 1159 525 
z
M 3116 1747 
Q 3116 2381 2855 2742 
Q 2594 3103 2138 3103 
Q 1681 3103 1420 2742 
Q 1159 2381 1159 1747 
Q 1159 1113 1420 752 
Q 1681 391 2138 391 
Q 2594 391 2855 752 
Q 3116 1113 3116 1747 
z
" transform="scale(0.015625)"/>
      <path id="DejaVuSans-72" d="M 2631 2963 
Q 2534 3019 2420 3045 
Q 2306 3072 2169 3072 
Q 1681 3072 1420 2755 
Q 1159 2438 1159 1844 
L 1159 0 
L 581 0 
L 581 3500 
L 1159 3500 
L 1159 2956 
Q 1341 3275 1631 3429 
Q 1922 3584 2338 3584 
Q 2397 3584 2469 3576 
Q 2541 3569 2628 3553 
L 2631 2963 
z
" transform="scale(0.015625)"/>
      <path id="DejaVuSans-69" d="M 603 3500 
L 1178 3500 
L 1178 0 
L 603 0 
L 603 3500 
z
M 603 4863 
L 1178 4863 
L 1178 4134 
L 603 4134 
L 603 4863 
z
" transform="scale(0.015625)"/>
     </defs>
     <use xlink:href="#DejaVuSans-65"/>
     <use xlink:href="#DejaVuSans-78" x="59.773438"/>
     <use xlink:href="#DejaVuSans-70" x="118.953125"/>
     <use xlink:href="#DejaVuSans-72" x="182.429688"/>
     <use xlink:href="#DejaVuSans-65" x="221.292969"/>
     <use xlink:href="#DejaVuSans-73" x="282.816406"/>
     <use xlink:href="#DejaVuSans-73" x="334.916016"/>
     <use xlink:href="#DejaVuSans-69" x="387.015625"/>
     <use xlink:href="#DejaVuSans-6f" x="414.798828"/>
     <use xlink:href="#DejaVuSans-6e" x="475.980469"/>
    </g>
   </g>
   <g id="text_3">
    <!-- Object/text -->
    <g style="fill: #111111" transform="translate(86.836352 108.273313) scale(0.11 -0.11)">
     <defs>
      <path id="DejaVuSans-4f" d="M 2522 4238 
Q 1834 4238 1429 3725 
Q 1025 3213 1025 2328 
Q 1025 1447 1429 934 
Q 1834 422 2522 422 
Q 3209 422 3611 934 
Q 4013 1447 4013 2328 
Q 4013 3213 3611 3725 
Q 3209 4238 2522 4238 
z
M 2522 4750 
Q 3503 4750 4090 4092 
Q 4678 3434 4678 2328 
Q 4678 1225 4090 567 
Q 3503 -91 2522 -91 
Q 1538 -91 948 565 
Q 359 1222 359 2328 
Q 359 3434 948 4092 
Q 1538 4750 2522 4750 
z
" transform="scale(0.015625)"/>
      <path id="DejaVuSans-2f" d="M 1625 4666 
L 2156 4666 
L 531 -594 
L 0 -594 
L 1625 4666 
z
" transform="scale(0.015625)"/>
     </defs>
     <use xlink:href="#DejaVuSans-4f"/>
     <use xlink:href="#DejaVuSans-62" x="78.710938"/>
     <use xlink:href="#DejaVuSans-6a" x="142.1875"/>
     <use xlink:href="#DejaVuSans-65" x="169.970703"/>
     <use xlink:href="#DejaVuSans-63" x="231.494141"/>
     <use xlink:href="#DejaVuSans-74" x="286.474609"/>
     <use xlink:href="#DejaVuSans-2f" x="325.683594"/>
     <use xlink:href="#DejaVuSans-74" x="359.375"/>
     <use xlink:href="#DejaVuSans-65" x="398.583984"/>
     <use xlink:href="#DejaVuSans-78" x="458.357422"/>
     <use xlink:href="#DejaVuSans-74" x="517.537109"/>
    </g>
    <!-- features -->
    <g style="fill: #111111" transform="translate(94.739165 119.922244) scale(0.11 -0.11)">
     <defs>
      <path id="DejaVuSans-66" d="M 2375 4863 
L 2375 4384 
L 1825 4384 
Q 1516 4384 1395 4259 
Q 1275 4134 1275 3809 
L 1275 3500 
L 2222 3500 
L 2222 3053 
L 1275 3053 
L 1275 0 
L 697 0 
L 697 3053 
L 147 3053 
L 147 3500 
L 697 3500 
L 697 3744 
Q 697 4328 969 4595 
Q 1241 4863 1831 4863 
L 2375 4863 
z
" transform="scale(0.015625)"/>
     </defs>
     <use xlink:href="#DejaVuSans-66"/>
     <use xlink:href="#DejaVuSans-65" x="35.205078"/>
     <use xlink:href="#DejaVuSans-61" x="96.728516"/>
     <use xlink:href="#DejaVuSans-74" x="158.007812"/>
     <use xlink:href="#DejaVuSans-75" x="197.216797"/>
     <use xlink:href="#DejaVuSans-72" x="260.595703"/>
     <use xlink:href="#DejaVuSans-65" x="299.458984"/>
     <use xlink:href="#DejaVuSans-73" x="360.982422"/>
    </g>
   </g>
   <g id="text_4">
    <!-- Candidate-anchor -->
    <g style="fill: #111111" transform="translate(198.762097 108.47616) scale(0.102 -0.102)">
     <defs>
      <path id="DejaVuSans-43" d="M 4122 4306 
L 4122 3641 
Q 3803 3938 3442 4084 
Q 3081 4231 2675 4231 
Q 1875 4231 1450 3742 
Q 1025 3253 1025 2328 
Q 1025 1406 1450 917 
Q 1875 428 2675 428 
Q 3081 428 3442 575 
Q 3803 722 4122 1019 
L 4122 359 
Q 3791 134 3420 21 
Q 3050 -91 2638 -91 
Q 1578 -91 968 557 
Q 359 1206 359 2328 
Q 359 3453 968 4101 
Q 1578 4750 2638 4750 
Q 3056 4750 3426 4639 
Q 3797 4528 4122 4306 
z
" transform="scale(0.015625)"/>
      <path id="DejaVuSans-64" d="M 2906 2969 
L 2906 4863 
L 3481 4863 
L 3481 0 
L 2906 0 
L 2906 525 
Q 2725 213 2448 61 
Q 2172 -91 1784 -91 
Q 1150 -91 751 415 
Q 353 922 353 1747 
Q 353 2572 751 3078 
Q 1150 3584 1784 3584 
Q 2172 3584 2448 3432 
Q 2725 3281 2906 2969 
z
M 947 1747 
Q 947 1113 1208 752 
Q 1469 391 1925 391 
Q 2381 391 2643 752 
Q 2906 1113 2906 1747 
Q 2906 2381 2643 2742 
Q 2381 3103 1925 3103 
Q 1469 3103 1208 2742 
Q 947 2381 947 1747 
z
" transform="scale(0.015625)"/>
      <path id="DejaVuSans-2d" d="M 313 2009 
L 1997 2009 
L 1997 1497 
L 313 1497 
L 313 2009 
z
" transform="scale(0.015625)"/>
      <path id="DejaVuSans-68" d="M 3513 2113 
L 3513 0 
L 2938 0 
L 2938 2094 
Q 2938 2591 2744 2837 
Q 2550 3084 2163 3084 
Q 1697 3084 1428 2787 
Q 1159 2491 1159 1978 
L 1159 0 
L 581 0 
L 581 4863 
L 1159 4863 
L 1159 2956 
Q 1366 3272 1645 3428 
Q 1925 3584 2291 3584 
Q 2894 3584 3203 3211 
Q 3513 2838 3513 2113 
z
" transform="scale(0.015625)"/>
     </defs>
     <use xlink:href="#DejaVuSans-43"/>
     <use xlink:href="#DejaVuSans-61" x="69.824219"/>
     <use xlink:href="#DejaVuSans-6e" x="131.103516"/>
     <use xlink:href="#DejaVuSans-64" x="194.482422"/>
     <use xlink:href="#DejaVuSans-69" x="257.958984"/>
     <use xlink:href="#DejaVuSans-64" x="285.742188"/>
     <use xlink:href="#DejaVuSans-61" x="349.21875"/>
     <use xlink:href="#DejaVuSans-74" x="410.498047"/>
     <use xlink:href="#DejaVuSans-65" x="449.707031"/>
     <use xlink:href="#DejaVuSans-2d" x="511.230469"/>
     <use xlink:href="#DejaVuSans-61" x="547.314453"/>
     <use xlink:href="#DejaVuSans-6e" x="608.59375"/>
     <use xlink:href="#DejaVuSans-63" x="671.972656"/>
     <use xlink:href="#DejaVuSans-68" x="726.953125"/>
     <use xlink:href="#DejaVuSans-6f" x="790.332031"/>
     <use xlink:href="#DejaVuSans-72" x="851.513672"/>
    </g>
    <!-- relation scores -->
    <g style="fill: #111111" transform="translate(206.876675 119.277896) scale(0.102 -0.102)">
     <defs>
      <path id="DejaVuSans-6c" d="M 603 4863 
L 1178 4863 
L 1178 0 
L 603 0 
L 603 4863 
z
" transform="scale(0.015625)"/>
     </defs>
     <use xlink:href="#DejaVuSans-72"/>
     <use xlink:href="#DejaVuSans-65" x="38.863281"/>
     <use xlink:href="#DejaVuSans-6c" x="100.386719"/>
     <use xlink:href="#DejaVuSans-61" x="128.169922"/>
     <use xlink:href="#DejaVuSans-74" x="189.449219"/>
     <use xlink:href="#DejaVuSans-69" x="228.658203"/>
     <use xlink:href="#DejaVuSans-6f" x="256.441406"/>
     <use xlink:href="#DejaVuSans-6e" x="317.623047"/>
     <use xlink:href="#DejaVuSans-20" x="381.001953"/>
     <use xlink:href="#DejaVuSans-73" x="412.789062"/>
     <use xlink:href="#DejaVuSans-63" x="464.888672"/>
     <use xlink:href="#DejaVuSans-6f" x="519.869141"/>
     <use xlink:href="#DejaVuSans-72" x="581.050781"/>
     <use xlink:href="#DejaVuSans-65" x="619.914062"/>
     <use xlink:href="#DejaVuSans-73" x="681.4375"/>
    </g>
   </g>
   <g id="text_5">
    <!-- Conditioned -->
    <g style="fill: #111111" transform="translate(345.559507 108.273313) scale(0.11 -0.11)">
     <use xlink:href="#DejaVuSans-43"/>
     <use xlink:href="#DejaVuSans-6f" x="69.824219"/>
     <use xlink:href="#DejaVuSans-6e" x="131.005859"/>
     <use xlink:href="#DejaVuSans-64" x="194.384766"/>
     <use xlink:href="#DejaVuSans-69" x="257.861328"/>
     <use xlink:href="#DejaVuSans-74" x="285.644531"/>
     <use xlink:href="#DejaVuSans-69" x="324.853516"/>
     <use xlink:href="#DejaVuSans-6f" x="352.636719"/>
     <use xlink:href="#DejaVuSans-6e" x="413.818359"/>
     <use xlink:href="#DejaVuSans-65" x="477.197266"/>
     <use xlink:href="#DejaVuSans-64" x="538.720703"/>
    </g>
    <!-- relation modes -->
    <g style="fill: #111111" transform="translate(337.514898 119.922244) scale(0.11 -0.11)">
     <defs>
      <path id="DejaVuSans-6d" d="M 3328 2828 
Q 3544 3216 3844 3400 
Q 4144 3584 4550 3584 
Q 5097 3584 5394 3201 
Q 5691 2819 5691 2113 
L 5691 0 
L 5113 0 
L 5113 2094 
Q 5113 2597 4934 2840 
Q 4756 3084 4391 3084 
Q 3944 3084 3684 2787 
Q 3425 2491 3425 1978 
L 3425 0 
L 2847 0 
L 2847 2094 
Q 2847 2600 2669 2842 
Q 2491 3084 2119 3084 
Q 1678 3084 1418 2786 
Q 1159 2488 1159 1978 
L 1159 0 
L 581 0 
L 581 3500 
L 1159 3500 
L 1159 2956 
Q 1356 3278 1631 3431 
Q 1906 3584 2284 3584 
Q 2666 3584 2933 3390 
Q 3200 3197 3328 2828 
z
" transform="scale(0.015625)"/>
     </defs>
     <use xlink:href="#DejaVuSans-72"/>
     <use xlink:href="#DejaVuSans-65" x="38.863281"/>
     <use xlink:href="#DejaVuSans-6c" x="100.386719"/>
     <use xlink:href="#DejaVuSans-61" x="128.169922"/>
     <use xlink:href="#DejaVuSans-74" x="189.449219"/>
     <use xlink:href="#DejaVuSans-69" x="228.658203"/>
     <use xlink:href="#DejaVuSans-6f" x="256.441406"/>
     <use xlink:href="#DejaVuSans-6e" x="317.623047"/>
     <use xlink:href="#DejaVuSans-20" x="381.001953"/>
     <use xlink:href="#DejaVuSans-6d" x="412.789062"/>
     <use xlink:href="#DejaVuSans-6f" x="510.201172"/>
     <use xlink:href="#DejaVuSans-64" x="571.382812"/>
     <use xlink:href="#DejaVuSans-65" x="634.859375"/>
     <use xlink:href="#DejaVuSans-73" x="696.382812"/>
    </g>
   </g>
   <g id="text_6">
    <!-- Logit fusion -->
    <g style="fill: #111111" transform="translate(473.946951 108.273313) scale(0.11 -0.11)">
     <use xlink:href="#DejaVuSans-4c"/>
     <use xlink:href="#DejaVuSans-6f" x="53.962891"/>
     <use xlink:href="#DejaVuSans-67" x="115.144531"/>
     <use xlink:href="#DejaVuSans-69" x="178.621094"/>
     <use xlink:href="#DejaVuSans-74" x="206.404297"/>
     <use xlink:href="#DejaVuSans-20" x="245.613281"/>
     <use xlink:href="#DejaVuSans-66" x="277.400391"/>
     <use xlink:href="#DejaVuSans-75" x="312.605469"/>
     <use xlink:href="#DejaVuSans-73" x="375.984375"/>
     <use xlink:href="#DejaVuSans-69" x="428.083984"/>
     <use xlink:href="#DejaVuSans-6f" x="455.867188"/>
     <use xlink:href="#DejaVuSans-6e" x="517.048828"/>
    </g>
    <!-- and ranking -->
    <g style="fill: #111111" transform="translate(472.967263 119.922244) scale(0.11 -0.11)">
     <defs>
      <path id="DejaVuSans-6b" d="M 581 4863 
L 1159 4863 
L 1159 1991 
L 2875 3500 
L 3609 3500 
L 1753 1863 
L 3688 0 
L 2938 0 
L 1159 1709 
L 1159 0 
L 581 0 
L 581 4863 
z
" transform="scale(0.015625)"/>
     </defs>
     <use xlink:href="#DejaVuSans-61"/>
     <use xlink:href="#DejaVuSans-6e" x="61.279297"/>
     <use xlink:href="#DejaVuSans-64" x="124.658203"/>
     <use xlink:href="#DejaVuSans-20" x="188.134766"/>
     <use xlink:href="#DejaVuSans-72" x="219.921875"/>
     <use xlink:href="#DejaVuSans-61" x="261.035156"/>
     <use xlink:href="#DejaVuSans-6e" x="322.314453"/>
     <use xlink:href="#DejaVuSans-6b" x="385.693359"/>
     <use xlink:href="#DejaVuSans-69" x="443.603516"/>
     <use xlink:href="#DejaVuSans-6e" x="471.386719"/>
     <use xlink:href="#DejaVuSans-67" x="534.765625"/>
    </g>
   </g>
   <g id="text_7">
    <!-- Prediction -->
    <g style="fill: #111111" transform="translate(607.539917 108.273313) scale(0.11 -0.11)">
     <defs>
      <path id="DejaVuSans-50" d="M 1259 4147 
L 1259 2394 
L 2053 2394 
Q 2494 2394 2734 2622 
Q 2975 2850 2975 3272 
Q 2975 3691 2734 3919 
Q 2494 4147 2053 4147 
L 1259 4147 
z
M 628 4666 
L 2053 4666 
Q 2838 4666 3239 4311 
Q 3641 3956 3641 3272 
Q 3641 2581 3239 2228 
Q 2838 1875 2053 1875 
L 1259 1875 
L 1259 0 
L 628 0 
L 628 4666 
z
" transform="scale(0.015625)"/>
     </defs>
     <use xlink:href="#DejaVuSans-50"/>
     <use xlink:href="#DejaVuSans-72" x="58.552734"/>
     <use xlink:href="#DejaVuSans-65" x="97.416016"/>
     <use xlink:href="#DejaVuSans-64" x="158.939453"/>
     <use xlink:href="#DejaVuSans-69" x="222.416016"/>
     <use xlink:href="#DejaVuSans-63" x="250.199219"/>
     <use xlink:href="#DejaVuSans-74" x="305.179688"/>
     <use xlink:href="#DejaVuSans-69" x="344.388672"/>
     <use xlink:href="#DejaVuSans-6f" x="372.171875"/>
     <use xlink:href="#DejaVuSans-6e" x="433.353516"/>
    </g>
    <!-- and diagnostics -->
    <g style="fill: #111111" transform="translate(591.593355 119.922244) scale(0.11 -0.11)">
     <use xlink:href="#DejaVuSans-61"/>
     <use xlink:href="#DejaVuSans-6e" x="61.279297"/>
     <use xlink:href="#DejaVuSans-64" x="124.658203"/>
     <use xlink:href="#DejaVuSans-20" x="188.134766"/>
     <use xlink:href="#DejaVuSans-64" x="219.921875"/>
     <use xlink:href="#DejaVuSans-69" x="283.398438"/>
     <use xlink:href="#DejaVuSans-61" x="311.181641"/>
     <use xlink:href="#DejaVuSans-67" x="372.460938"/>
     <use xlink:href="#DejaVuSans-6e" x="435.9375"/>
     <use xlink:href="#DejaVuSans-6f" x="499.316406"/>
     <use xlink:href="#DejaVuSans-73" x="560.498047"/>
     <use xlink:href="#DejaVuSans-74" x="612.597656"/>
     <use xlink:href="#DejaVuSans-69" x="651.806641"/>
     <use xlink:href="#DejaVuSans-63" x="679.589844"/>
     <use xlink:href="#DejaVuSans-73" x="734.570312"/>
    </g>
   </g>
   <g id="text_8">
    <!-- Hard-subset analysis -->
    <g style="fill: #111111" transform="translate(581.624276 198.160544) scale(0.102 -0.102)">
     <defs>
      <path id="DejaVuSans-48" d="M 628 4666 
L 1259 4666 
L 1259 2753 
L 3553 2753 
L 3553 4666 
L 4184 4666 
L 4184 0 
L 3553 0 
L 3553 2222 
L 1259 2222 
L 1259 0 
L 628 0 
L 628 4666 
z
" transform="scale(0.015625)"/>
      <path id="DejaVuSans-79" d="M 2059 -325 
Q 1816 -950 1584 -1140 
Q 1353 -1331 966 -1331 
L 506 -1331 
L 506 -850 
L 844 -850 
Q 1081 -850 1212 -737 
Q 1344 -625 1503 -206 
L 1606 56 
L 191 3500 
L 800 3500 
L 1894 763 
L 2988 3500 
L 3597 3500 
L 2059 -325 
z
" transform="scale(0.015625)"/>
     </defs>
     <use xlink:href="#DejaVuSans-48"/>
     <use xlink:href="#DejaVuSans-61" x="75.195312"/>
     <use xlink:href="#DejaVuSans-72" x="136.474609"/>
     <use xlink:href="#DejaVuSans-64" x="175.837891"/>
     <use xlink:href="#DejaVuSans-2d" x="239.314453"/>
     <use xlink:href="#DejaVuSans-73" x="275.398438"/>
     <use xlink:href="#DejaVuSans-75" x="327.498047"/>
     <use xlink:href="#DejaVuSans-62" x="390.876953"/>
     <use xlink:href="#DejaVuSans-73" x="454.353516"/>
     <use xlink:href="#DejaVuSans-65" x="506.453125"/>
     <use xlink:href="#DejaVuSans-74" x="567.976562"/>
     <use xlink:href="#DejaVuSans-20" x="607.185547"/>
     <use xlink:href="#DejaVuSans-61" x="638.972656"/>
     <use xlink:href="#DejaVuSans-6e" x="700.251953"/>
     <use xlink:href="#DejaVuSans-61" x="763.630859"/>
     <use xlink:href="#DejaVuSans-6c" x="824.910156"/>
     <use xlink:href="#DejaVuSans-79" x="852.693359"/>
     <use xlink:href="#DejaVuSans-73" x="911.873047"/>
     <use xlink:href="#DejaVuSans-69" x="963.972656"/>
     <use xlink:href="#DejaVuSans-73" x="991.755859"/>
    </g>
    <!-- Coverage analysis -->
    <g style="fill: #111111" transform="translate(588.154667 208.96228) scale(0.102 -0.102)">
     <defs>
      <path id="DejaVuSans-76" d="M 191 3500 
L 800 3500 
L 1894 563 
L 2988 3500 
L 3597 3500 
L 2284 0 
L 1503 0 
L 191 3500 
z
" transform="scale(0.015625)"/>
     </defs>
     <use xlink:href="#DejaVuSans-43"/>
     <use xlink:href="#DejaVuSans-6f" x="69.824219"/>
     <use xlink:href="#DejaVuSans-76" x="131.005859"/>
     <use xlink:href="#DejaVuSans-65" x="190.185547"/>
     <use xlink:href="#DejaVuSans-72" x="251.708984"/>
     <use xlink:href="#DejaVuSans-61" x="292.822266"/>
     <use xlink:href="#DejaVuSans-67" x="354.101562"/>
     <use xlink:href="#DejaVuSans-65" x="417.578125"/>
     <use xlink:href="#DejaVuSans-20" x="479.101562"/>
     <use xlink:href="#DejaVuSans-61" x="510.888672"/>
     <use xlink:href="#DejaVuSans-6e" x="572.167969"/>
     <use xlink:href="#DejaVuSans-61" x="635.546875"/>
     <use xlink:href="#DejaVuSans-6c" x="696.826172"/>
     <use xlink:href="#DejaVuSans-79" x="724.609375"/>
     <use xlink:href="#DejaVuSans-73" x="783.789062"/>
     <use xlink:href="#DejaVuSans-69" x="835.888672"/>
     <use xlink:href="#DejaVuSans-73" x="863.671875"/>
    </g>
   </g>
   <g id="text_9">
    <!-- relation-scoring module -->
    <g style="fill: #555555" transform="translate(249.760123 66.275929) scale(0.1 -0.1)">
     <use xlink:href="#DejaVuSans-72"/>
     <use xlink:href="#DejaVuSans-65" x="38.863281"/>
     <use xlink:href="#DejaVuSans-6c" x="100.386719"/>
     <use xlink:href="#DejaVuSans-61" x="128.169922"/>
     <use xlink:href="#DejaVuSans-74" x="189.449219"/>
     <use xlink:href="#DejaVuSans-69" x="228.658203"/>
     <use xlink:href="#DejaVuSans-6f" x="256.441406"/>
     <use xlink:href="#DejaVuSans-6e" x="317.623047"/>
     <use xlink:href="#DejaVuSans-2d" x="381.001953"/>
     <use xlink:href="#DejaVuSans-73" x="417.085938"/>
     <use xlink:href="#DejaVuSans-63" x="469.185547"/>
     <use xlink:href="#DejaVuSans-6f" x="524.166016"/>
     <use xlink:href="#DejaVuSans-72" x="585.347656"/>
     <use xlink:href="#DejaVuSans-69" x="626.460938"/>
     <use xlink:href="#DejaVuSans-6e" x="654.244141"/>
     <use xlink:href="#DejaVuSans-67" x="717.623047"/>
     <use xlink:href="#DejaVuSans-20" x="781.099609"/>
     <use xlink:href="#DejaVuSans-6d" x="812.886719"/>
     <use xlink:href="#DejaVuSans-6f" x="910.298828"/>
     <use xlink:href="#DejaVuSans-64" x="971.480469"/>
     <use xlink:href="#DejaVuSans-75" x="1034.957031"/>
     <use xlink:href="#DejaVuSans-6c" x="1098.335938"/>
     <use xlink:href="#DejaVuSans-65" x="1126.119141"/>
    </g>
   </g>
  </g>
 </g>
 <defs>
  <clipPath id="p7419e51dc6">
   <rect x="2.16" y="2.16" width="702.6" height="259.8"/>
  </clipPath>
 </defs>
</svg>
